<?xml version="1.0" encoding="UTF-8"?>
<!DOCTYPE svg PUBLIC "-//W3C//DTD SVG 1.1//EN" "http://www.w3.org/Graphics/SVG/1.1/DTD/svg11.dtd">
<svg xmlns="http://www.w3.org/2000/svg" version="1.1" width="512px" height="512px" style="shape-rendering:geometricPrecision; text-rendering:geometricPrecision; image-rendering:optimizeQuality; fill-rule:evenodd; clip-rule:evenodd" xmlns:xlink="http://www.w3.org/1999/xlink">
<g><path style="opacity:0.997" fill="#f89a23" d="M 232.5,-0.5 C 247.833,-0.5 263.167,-0.5 278.5,-0.5C 361.997,9.64646 426.831,49.6465 473,119.5C 494.765,155.295 507.598,193.962 511.5,235.5C 511.5,248.833 511.5,262.167 511.5,275.5C 500.058,373.923 450.058,445.089 361.5,489C 333.943,501.221 305.276,508.721 275.5,511.5C 262.167,511.5 248.833,511.5 235.5,511.5C 146.083,501.563 78.2498,458.23 32,381.5C 14.3929,349.184 3.55957,314.851 -0.5,278.5C -0.5,263.167 -0.5,247.833 -0.5,232.5C 10.8845,141.195 56.5512,73.0285 136.5,28C 166.896,12.6975 198.896,3.19749 232.5,-0.5 Z"/></g>
<g><path style="opacity:1" fill="#fdfaf8" d="M 300.5,105.5 C 325.17,102.674 347.17,108.841 366.5,124C 384.479,140.609 389.313,160.442 381,183.5C 369.056,205.404 350.556,217.904 325.5,221C 308.108,223.077 291.441,220.577 275.5,213.5C 268.199,217.487 261.199,221.987 254.5,227C 248.398,229.416 245.398,227.25 245.5,220.5C 247.436,208.893 248.27,197.226 248,185.5C 237.384,160.601 242.55,139.434 263.5,122C 274.697,113.73 287.031,108.23 300.5,105.5 Z"/></g>
<g><path style="opacity:1" fill="#f89b26" d="M 304.5,116.5 C 324.003,114.957 341.67,119.79 357.5,131C 375.571,147.502 378.405,166.335 366,187.5C 343.529,210.332 317.029,216.498 286.5,206C 282.614,203.89 278.614,202.057 274.5,200.5C 268.954,203.206 263.787,206.54 259,210.5C 258.895,202.983 259.395,195.483 260.5,188C 257.948,182.38 255.781,176.546 254,170.5C 252.011,159.473 254.344,149.473 261,140.5C 272.552,127.141 287.052,119.141 304.5,116.5 Z"/></g>
<g><path style="opacity:1" fill="#fdfaf7" d="M 270.5,148.5 C 288.269,147.755 294.436,155.755 289,172.5C 282.507,180.189 275.007,181.356 266.5,176C 257.525,165.322 258.859,156.155 270.5,148.5 Z"/></g>
<g><path style="opacity:1" fill="#fdfaf7" d="M 308.5,148.5 C 318.372,146.617 325.205,150.283 329,159.5C 329.833,173.333 323.333,179.833 309.5,179C 298.902,173.538 296.068,165.372 301,154.5C 303.114,151.879 305.614,149.879 308.5,148.5 Z"/></g>
<g><path style="opacity:1" fill="#fdfaf7" d="M 345.5,148.5 C 362.339,147.501 368.839,155.168 365,171.5C 358.469,180.051 350.635,181.551 341.5,176C 332.56,165.354 333.893,156.187 345.5,148.5 Z"/></g>
<g><path style="opacity:1" fill="#fdfaf8" d="M 169.5,151.5 C 175.037,151.087 180.37,151.92 185.5,154C 194.637,162.136 203.47,170.636 212,179.5C 217.641,188.247 217.974,197.247 213,206.5C 209.667,209.833 206.333,213.167 203,216.5C 202.333,217.5 202.333,218.5 203,219.5C 216.5,233 230,246.5 243.5,260C 244.5,260.667 245.5,260.667 246.5,260C 251.029,254.133 256.695,249.8 263.5,247C 271.302,245.38 278.302,247.047 284.5,252C 293.735,260.565 302.235,269.732 310,279.5C 312.489,287.604 311.489,295.27 307,302.5C 297.47,312.364 287.637,321.864 277.5,331C 261.671,340.238 246.338,339.571 231.5,329C 197.972,295.806 164.805,262.306 132,228.5C 122.521,212.111 123.521,196.444 135,181.5C 143.5,173 152,164.5 160.5,156C 163.437,154.199 166.437,152.699 169.5,151.5 Z"/></g>
<g><path style="opacity:1" fill="#f89e2f" d="M 273.5,159.5 C 279.209,158.867 281.209,161.2 279.5,166.5C 272.293,168.302 270.293,165.969 273.5,159.5 Z"/></g>
<g><path style="opacity:1" fill="#f89e2e" d="M 311.5,159.5 C 318.004,159.138 319.671,161.638 316.5,167C 309.745,167.756 308.078,165.256 311.5,159.5 Z"/></g>
<g><path style="opacity:1" fill="#f89c29" d="M 348.5,159.5 C 354.209,158.867 356.209,161.2 354.5,166.5C 347.746,168.532 345.746,166.199 348.5,159.5 Z"/></g>
<g><path style="opacity:1" fill="#f89b26" d="M 171.5,162.5 C 175.059,162.408 178.392,163.241 181.5,165C 189.698,172.863 197.531,181.03 205,189.5C 205.701,192.928 205.368,196.262 204,199.5C 199.367,205.135 194.367,210.468 189,215.5C 188.333,217.167 188.333,218.833 189,220.5C 206.833,238.333 224.667,256.167 242.5,274C 244.971,274.706 247.305,274.373 249.5,273C 254.167,268.333 258.833,263.667 263.5,259C 267.471,257.087 271.471,257.087 275.5,259C 283.333,266.833 291.167,274.667 299,282.5C 301.121,286.997 300.788,291.33 298,295.5C 289.5,304 281,312.5 272.5,321C 261.436,326.966 250.436,326.966 239.5,321C 207,288.5 174.5,256 142,223.5C 134.369,211.901 134.702,200.568 143,189.5C 152.093,179.902 161.593,170.902 171.5,162.5 Z"/></g>
<g><path style="opacity:1" fill="#fdfbf8" d="M 154.5,193.5 C 157.652,192.959 160.152,193.959 162,196.5C 161.589,200.942 160.922,205.275 160,209.5C 190.861,240.028 221.361,270.861 251.5,302C 253.034,302.923 254.701,303.423 256.5,303.5C 259.035,302.963 261.369,301.963 263.5,300.5C 270.65,303.087 271.316,306.92 265.5,312C 259.167,315.333 252.833,315.333 246.5,312C 214.667,280.167 182.833,248.333 151,216.5C 146.82,207.942 147.986,200.276 154.5,193.5 Z"/></g>
<g><path style="opacity:1" fill="#fdfcfc" d="M 94.5,365.5 C 201.501,365.333 308.501,365.5 415.5,366C 417.333,366.5 418.5,367.667 419,369.5C 419.667,380.5 419.667,391.5 419,402.5C 418.167,403.333 417.333,404.167 416.5,405C 309.167,405.667 201.833,405.667 94.5,405C 93.6667,404.167 92.8333,403.333 92,402.5C 91.3333,391.167 91.3333,379.833 92,368.5C 93.045,367.627 93.8783,366.627 94.5,365.5 Z"/></g>
<g><path style="opacity:1" fill="#f9b35a" d="M 407.5,394.5 C 407.5,388.833 407.5,383.167 407.5,377.5C 306.167,377.5 204.833,377.5 103.5,377.5C 103.5,383.167 103.5,388.833 103.5,394.5C 102.51,388.69 102.177,382.69 102.5,376.5C 204.5,376.5 306.5,376.5 408.5,376.5C 408.823,382.69 408.49,388.69 407.5,394.5 Z"/></g>
<g><path style="opacity:1" fill="#f79a22" d="M 407.5,394.5 C 306.167,394.5 204.833,394.5 103.5,394.5C 103.5,388.833 103.5,383.167 103.5,377.5C 204.833,377.5 306.167,377.5 407.5,377.5C 407.5,383.167 407.5,388.833 407.5,394.5 Z"/></g>
</svg>
