<?xml version="1.0" encoding="UTF-8"?>
<!DOCTYPE svg PUBLIC "-//W3C//DTD SVG 1.1//EN" "http://www.w3.org/Graphics/SVG/1.1/DTD/svg11.dtd">
<svg xmlns="http://www.w3.org/2000/svg" version="1.1" width="512px" height="512px" style="shape-rendering:geometricPrecision; text-rendering:geometricPrecision; image-rendering:optimizeQuality; fill-rule:evenodd; clip-rule:evenodd" xmlns:xlink="http://www.w3.org/1999/xlink">
<g><path style="opacity:0.996" fill="#ffa549" d="M 232.5,-0.5 C 247.833,-0.5 263.167,-0.5 278.5,-0.5C 376.233,11.9285 446.733,62.2618 490,150.5C 501.188,176.209 508.355,202.875 511.5,230.5C 511.5,247.167 511.5,263.833 511.5,280.5C 500.432,367.678 457.432,433.845 382.5,479C 350.588,496.806 316.588,507.639 280.5,511.5C 263.833,511.5 247.167,511.5 230.5,511.5C 134.613,498.496 65.1131,448.83 22,362.5C 10.0981,335.551 2.59809,307.551 -0.5,278.5C -0.5,263.167 -0.5,247.833 -0.5,232.5C 10.3879,142.856 54.7213,75.3562 132.5,30C 163.971,13.3053 197.304,3.1386 232.5,-0.5 Z"/></g>
<g><path style="opacity:1" fill="#fffefe" d="M 115.5,159.5 C 197.167,159.333 278.834,159.5 360.5,160C 371.145,162.896 372.145,167.562 363.5,174C 327.5,200 291.5,226 255.5,252C 245.543,258.464 235.209,259.13 224.5,254C 185.833,226 147.167,198 108.5,170C 107.424,168.274 107.257,166.441 108,164.5C 110.479,162.686 112.979,161.019 115.5,159.5 Z"/></g>
<g><path style="opacity:1" fill="#fffefe" d="M 101.5,174.5 C 129.936,194.423 158.269,214.589 186.5,235C 159.653,262.014 132.653,288.847 105.5,315.5C 103.854,314.221 102.687,312.555 102,310.5C 101.5,265.168 101.333,219.835 101.5,174.5 Z"/></g>
<g><path style="opacity:1" fill="#fffefd" d="M 373.5,174.5 C 375.489,196.475 376.156,218.808 375.5,241.5C 351.669,235.168 330.835,240.501 313,257.5C 305.652,250.319 298.485,242.986 291.5,235.5C 318.852,215.142 346.185,194.809 373.5,174.5 Z"/></g>
<g><path style="opacity:1" fill="#ffac58" d="M 190.5,186.5 C 222.502,186.333 254.502,186.5 286.5,187C 289.167,189.333 289.167,191.667 286.5,194C 254.5,194.667 222.5,194.667 190.5,194C 187.914,191.506 187.914,189.006 190.5,186.5 Z"/></g>
<g><path style="opacity:1" fill="#fffefd" d="M 301.5,323.5 C 240.336,324.499 179.002,324.832 117.5,324.5C 114.195,324.459 112.029,323.125 111,320.5C 138.041,293.292 165.207,266.292 192.5,239.5C 202.011,246.089 211.344,252.922 220.5,260C 232.475,267.226 244.475,267.226 256.5,260C 266.011,252.774 275.678,246.107 285.5,240C 293.413,247.409 300.746,255.242 307.5,263.5C 295.216,282.383 293.216,302.383 301.5,323.5 Z"/></g>
<g><path style="opacity:1" fill="#fffefd" d="M 345.5,246.5 C 378.151,243.394 399.317,257.394 409,288.5C 412.251,320.862 398.418,341.696 367.5,351C 335.747,354.214 314.913,340.714 305,310.5C 301.266,278.099 314.766,256.766 345.5,246.5 Z"/></g>
<g><path style="opacity:1" fill="#ffa64b" d="M 361.5,329.5 C 361.833,312.487 361.499,295.487 360.5,278.5C 359.893,278.624 359.56,278.957 359.5,279.5C 354.37,285.131 349.036,290.631 343.5,296C 340.447,297.072 338.447,296.072 337.5,293C 345.457,284.042 353.79,275.375 362.5,267C 364.112,266.28 365.612,266.446 367,267.5C 367.667,288.5 367.667,309.5 367,330.5C 364.765,331.98 362.932,331.647 361.5,329.5 Z"/></g>
<g><path style="opacity:1" fill="#ffbe7b" d="M 359.5,279.5 C 359.56,278.957 359.893,278.624 360.5,278.5C 361.499,295.487 361.833,312.487 361.5,329.5C 360.833,312.833 360.167,296.167 359.5,279.5 Z"/></g>
<g><path style="opacity:1" fill="#ffa549" d="M 190.5,284.5 C 222.502,284.333 254.502,284.5 286.5,285C 288.602,286.733 288.935,288.733 287.5,291C 254.833,291.667 222.167,291.667 189.5,291C 188.144,288.586 188.478,286.419 190.5,284.5 Z"/></g>
<g><path style="opacity:1" fill="#fff2e5" d="M 301.5,323.5 C 302.043,323.56 302.376,323.893 302.5,324.5C 240.668,325.832 179.001,325.832 117.5,324.5C 179.002,324.832 240.336,324.499 301.5,323.5 Z"/></g>
</svg>
