<svg width="76" height="77" viewBox="0 0 76 77" fill="none" xmlns="http://www.w3.org/2000/svg">
<path d="M20 46.6V20C20 18.8667 20.3833 17.9167 21.15 17.15C21.9167 16.3833 22.8667 16 24 16H28C29.1333 16 30.0833 16.3833 30.85 17.15C31.6167 17.9167 32 18.8667 32 20V46.6L31.5 46.1C29.9667 44.6333 28.1333 43.9 26 43.9C23.8667 43.9 22.0333 44.6333 20.5 46.1L20 46.6ZM40 52.6V4C40 2.86667 40.3833 1.91667 41.15 1.15C41.9167 0.383333 42.8667 0 44 0H48C49.1333 0 50.0833 0.383333 50.85 1.15C51.6167 1.91667 52 2.86667 52 4V40.6L40 52.6ZM0 66.4V36C0 34.8667 0.383333 33.9167 1.15 33.15C1.91667 32.3833 2.86667 32 4 32H8C9.13333 32 10.0833 32.3833 10.85 33.15C11.6167 33.9167 12 34.8667 12 36V54.4L0 66.4ZM9.6 76.2C7.86667 76.2 6.65 75.3833 5.95 73.75C5.25 72.1167 5.53333 70.6667 6.8 69.4L23.2 53C23.9333 52.2667 24.8167 51.8667 25.85 51.8C26.8833 51.7333 27.8 52.0667 28.6 52.8L40 62.6L62.4 40.2H60C58.8667 40.2 57.9167 39.8167 57.15 39.05C56.3833 38.2833 56 37.3333 56 36.2C56 35.0667 56.3833 34.1167 57.15 33.35C57.9167 32.5833 58.8667 32.2 60 32.2H72C73.1333 32.2 74.0833 32.5833 74.85 33.35C75.6167 34.1167 76 35.0667 76 36.2V48.2C76 49.3333 75.6167 50.2833 74.85 51.05C74.0833 51.8167 73.1333 52.2 72 52.2C70.8667 52.2 69.9167 51.8167 69.15 51.05C68.3833 50.2833 68 49.3333 68 48.2V45.8L43 70.8C42.2667 71.5333 41.3833 71.9333 40.35 72C39.3167 72.0667 38.4 71.7333 37.6 71L26.2 61.2L12.4 75C12.0667 75.3333 11.65 75.6167 11.15 75.85C10.65 76.0833 10.1333 76.2 9.6 76.2Z" fill="white"/>
</svg>
