<?xml version="1.0" encoding="UTF-8"?>
<!DOCTYPE svg PUBLIC "-//W3C//DTD SVG 1.1//EN" "http://www.w3.org/Graphics/SVG/1.1/DTD/svg11.dtd">
<svg xmlns="http://www.w3.org/2000/svg" version="1.1" width="512px" height="512px" style="shape-rendering:geometricPrecision; text-rendering:geometricPrecision; image-rendering:optimizeQuality; fill-rule:evenodd; clip-rule:evenodd" xmlns:xlink="http://www.w3.org/1999/xlink">
<g><path style="opacity:0.998" fill="#ffa726" d="M 232.5,-0.5 C 247.833,-0.5 263.167,-0.5 278.5,-0.5C 370.807,10.8856 439.307,57.219 484,138.5C 498.774,168.31 507.941,199.644 511.5,232.5C 511.5,247.833 511.5,263.167 511.5,278.5C 500.114,370.807 453.781,439.307 372.5,484C 342.69,498.774 311.356,507.941 278.5,511.5C 263.167,511.5 247.833,511.5 232.5,511.5C 140.193,500.114 71.6925,453.781 27,372.5C 12.2255,342.69 3.05884,311.356 -0.5,278.5C -0.5,263.167 -0.5,247.833 -0.5,232.5C 10.8856,140.193 57.219,71.6925 138.5,27C 168.31,12.2255 199.644,3.05884 232.5,-0.5 Z"/></g>
<g><path style="opacity:1" fill="#fffbf5" d="M 307.5,132.5 C 342.484,129.699 366.65,144.366 380,176.5C 387.635,214.403 373.801,240.903 338.5,256C 297.182,264.262 270.015,248.429 257,208.5C 252.945,169.089 269.779,143.756 307.5,132.5 Z"/></g>
<g><path style="opacity:1" fill="#ffa829" d="M 311.5,138.5 C 336.636,137.316 355.803,147.316 369,168.5C 379.129,190.638 377.129,211.638 363,231.5C 342.328,252.434 318.495,256.934 291.5,245C 266.987,228.813 258.153,206.313 265,177.5C 273.588,156.14 289.088,143.14 311.5,138.5 Z"/></g>
<g><path style="opacity:1" fill="#fffbf6" d="M 297.5,165.5 C 305.875,164.38 313.042,166.714 319,172.5C 331.179,162.682 342.846,163.349 354,174.5C 359.59,183.263 359.923,192.263 355,201.5C 343.803,212.363 332.97,223.529 322.5,235C 321.391,235.638 320.225,236.138 319,236.5C 307.041,225.542 295.375,214.209 284,202.5C 275.946,185.49 280.446,173.157 297.5,165.5 Z"/></g>
<g><path style="opacity:1" fill="#ffa727" d="M 297.5,172.5 C 301.936,172.21 306.27,172.71 310.5,174C 313.344,176.181 316.178,178.347 319,180.5C 322.211,177.627 325.711,175.127 329.5,173C 344.369,171.208 351.536,177.708 351,192.5C 350.751,195.177 349.751,197.51 348,199.5C 338.333,209.167 328.667,218.833 319,228.5C 308.303,218.137 297.97,207.471 288,196.5C 284.252,185.674 287.419,177.674 297.5,172.5 Z"/></g>
<g><path style="opacity:1" fill="#fffbf5" d="M 212.5,257.5 C 243.049,255.316 272.382,260.15 300.5,272C 304.62,275.735 307.62,280.235 309.5,285.5C 330.418,279.52 351.418,273.686 372.5,268C 392.333,265.176 402.167,273.676 402,293.5C 400.384,298.779 397.551,303.279 393.5,307C 362.616,320.609 331.616,333.942 300.5,347C 289.754,350.368 278.754,351.368 267.5,350C 255.367,347.065 243.367,343.732 231.5,340C 214.888,338.654 199.555,342.32 185.5,351C 188.459,355.645 188.126,359.979 184.5,364C 174.5,368.667 164.5,373.333 154.5,378C 151.412,378.847 148.579,378.347 146,376.5C 134,351.167 122,325.833 110,300.5C 107.454,296.184 108.287,292.684 112.5,290C 122.5,285.333 132.5,280.667 142.5,276C 148.441,275.064 152.274,277.564 154,283.5C 171.143,269.512 190.643,260.845 212.5,257.5 Z"/></g>
<g><path style="opacity:1" fill="#ffa728" d="M 221.5,263.5 C 247.945,262.728 273.278,267.562 297.5,278C 301.722,282.937 302.556,288.437 300,294.5C 296.155,299.003 291.322,300.503 285.5,299C 273.624,296.66 261.791,294.16 250,291.5C 245.161,292.001 244.327,294.168 247.5,298C 259.908,300.346 272.241,303.012 284.5,306C 295.929,307.37 304.096,302.87 309,292.5C 332.587,285.853 356.254,279.52 380,273.5C 392.759,275.684 397.425,283.018 394,295.5C 391.778,299.388 388.612,302.221 384.5,304C 354.064,317.551 323.398,330.551 292.5,343C 284.864,344.236 277.197,344.57 269.5,344C 260.307,341.935 251.307,339.269 242.5,336C 230.902,333.17 219.236,332.837 207.5,335C 198.829,337.946 190.162,340.78 181.5,343.5C 174.565,326.96 167.065,310.627 159,294.5C 158.009,292.553 157.675,290.553 158,288.5C 176.717,273.765 197.884,265.431 221.5,263.5 Z"/></g>
<g><path style="opacity:1" fill="#ffa829" d="M 144.5,281.5 C 157.315,306.466 169.648,331.799 181.5,357.5C 171.111,362.111 160.944,367.111 151,372.5C 139.44,347.046 127.607,321.713 115.5,296.5C 125.071,291.215 134.738,286.215 144.5,281.5 Z"/></g>
<g><path style="opacity:1" fill="#fffbf6" d="M 133.5,295.5 C 143.992,293.834 148.826,298.167 148,308.5C 143.562,316.868 137.562,318.202 130,312.5C 127.826,309.454 127.159,306.12 128,302.5C 129.666,300.004 131.5,297.671 133.5,295.5 Z"/></g>
<g><path style="opacity:1" fill="#ffad3a" d="M 136.5,301.5 C 137.93,301.421 139.264,301.754 140.5,302.5C 142.708,309.133 140.875,310.8 135,307.5C 134.252,305.16 134.752,303.16 136.5,301.5 Z"/></g>
</svg>
