<svg width="40" height="48" viewBox="0 0 40 48" fill="none" xmlns="http://www.w3.org/2000/svg">
<path d="M10.682 31.48V41H9.338V34.434L6.37 39.306H5.516L2.52 34.392L2.548 41H1.204V31.48H2.184L5.936 37.654L9.688 31.48H10.682ZM19.2449 37.668C19.2449 37.92 19.2309 38.102 19.2169 38.228L19.1889 38.214V38.228H13.8969C14.0789 39.306 14.8769 40.076 16.0949 40.076C16.8649 40.076 17.3969 39.81 17.6909 39.264H19.0769C18.6989 40.426 17.5229 41.168 16.0529 41.168C15.0449 41.168 14.2189 40.846 13.5749 40.188C12.9449 39.53 12.6229 38.718 12.6229 37.738C12.6229 36.744 12.9449 35.932 13.5749 35.274C14.2189 34.616 15.0449 34.294 16.0529 34.294C16.9769 34.294 17.7329 34.616 18.3349 35.246C18.9369 35.876 19.2309 36.674 19.2449 37.668ZM15.9969 35.4C14.8349 35.4 14.0649 36.156 13.8969 37.262H17.9429C17.8169 36.128 17.0749 35.4 15.9969 35.4ZM27.2299 37.304V41H25.9559V37.374C25.9559 36.142 25.2699 35.414 24.1499 35.414C23.4079 35.414 22.7639 35.778 22.1899 36.506V41H20.9019V34.462H22.1899V35.12C22.8199 34.546 23.5479 34.252 24.4019 34.252C25.2559 34.252 25.9279 34.532 26.4459 35.092C26.9639 35.638 27.2299 36.38 27.2299 37.304ZM35.264 34.462V41H33.976V40.356C33.346 40.93 32.618 41.21 31.764 41.21C30.91 41.21 30.224 40.93 29.706 40.384C29.188 39.824 28.936 39.082 28.936 38.144V34.462H30.224V38.074C30.224 39.32 30.91 40.034 32.016 40.034C32.772 40.034 33.43 39.67 33.976 38.956V34.462H35.264Z" fill="black"/>
<line x1="2" y1="2" x2="29" y2="2" stroke="#393636" stroke-width="4" stroke-linecap="round"/>
<line x1="2" y1="11" x2="29" y2="11" stroke="#393636" stroke-width="4" stroke-linecap="round"/>
<line x1="2" y1="21" x2="16" y2="21" stroke="#393636" stroke-width="4" stroke-linecap="round"/>
</svg>
