<?xml version="1.0" encoding="UTF-8"?>
<!DOCTYPE svg PUBLIC "-//W3C//DTD SVG 1.1//EN" "http://www.w3.org/Graphics/SVG/1.1/DTD/svg11.dtd">
<svg xmlns="http://www.w3.org/2000/svg" version="1.1" width="512px" height="512px" style="shape-rendering:geometricPrecision; text-rendering:geometricPrecision; image-rendering:optimizeQuality; fill-rule:evenodd; clip-rule:evenodd" xmlns:xlink="http://www.w3.org/1999/xlink">
<g><path style="opacity:0.997" fill="#f89a23" d="M 237.5,14.5 C 337.823,11.7292 413.989,52.7292 466,137.5C 501.779,205.193 506.112,274.86 479,346.5C 439.1,435.238 370.6,485.071 273.5,496C 173.15,499.255 96.9833,458.422 45,373.5C 9.22094,305.807 4.88761,236.14 32,164.5C 72.1196,75.8363 140.62,25.8363 237.5,14.5 Z"/></g>
<g><path style="opacity:1" fill="#fff9f2" d="M 243.5,135.5 C 291.829,133.565 324.995,154.898 343,199.5C 348.261,217.095 347.594,234.429 341,251.5C 333.357,268.797 323.691,284.797 312,299.5C 304.5,308.333 297,317.167 289.5,326C 301.587,328.532 313.254,332.532 324.5,338C 334.768,345.262 335.101,352.929 325.5,361C 312.501,368.419 298.501,372.752 283.5,374C 253.168,378.044 223.501,375.377 194.5,366C 187.457,363.621 182.29,359.121 179,352.5C 178.245,349.697 178.578,347.03 180,344.5C 185.077,338.712 191.244,334.545 198.5,332C 206.129,329.843 213.795,327.843 221.5,326C 208.157,310.803 195.657,294.97 184,278.5C 154.112,233.801 158.612,192.967 197.5,156C 211.299,145.598 226.632,138.765 243.5,135.5 Z"/></g>
<g><path style="opacity:1" fill="#f89a24" d="M 244.5,140.5 C 293.769,139.024 325.602,161.691 340,208.5C 342.995,222.953 341.662,236.953 336,250.5C 326.506,270.832 314.506,289.499 300,306.5C 286.867,321.301 273.367,335.801 259.5,350C 256.833,352 254.167,352 251.5,350C 230.844,329.352 211.677,307.519 194,284.5C 182.804,269.439 174.804,252.772 170,234.5C 168.604,191.458 187.771,161.625 227.5,145C 233.236,143.317 238.903,141.817 244.5,140.5 Z"/></g>
<g><path style="opacity:1" fill="#fffefd" d="M 246.5,187.5 C 270.023,184.835 285.857,194.502 294,216.5C 297.967,241.737 287.8,258.237 263.5,266C 239.577,268.466 224.077,258.3 217,235.5C 213.848,211.463 223.682,195.463 246.5,187.5 Z"/></g>
<g><path style="opacity:1" fill="#f89b26" d="M 220.5,331.5 C 222.527,331.338 224.527,331.505 226.5,332C 234.53,340.364 242.863,348.364 251.5,356C 255.533,357.04 259.199,356.374 262.5,354C 270.112,345.714 278.278,338.214 287,331.5C 299.136,332.992 310.636,336.492 321.5,342C 328.864,346.692 329.197,351.692 322.5,357C 300.771,366.973 277.938,371.473 254,370.5C 230.988,371.266 209.155,366.766 188.5,357C 184.238,354.351 183.071,350.851 185,346.5C 187.592,343.238 190.759,340.738 194.5,339C 203.02,335.541 211.687,333.041 220.5,331.5 Z"/></g>
</svg>
