<?xml version="1.0" encoding="UTF-8"?>
<!DOCTYPE svg PUBLIC "-//W3C//DTD SVG 1.1//EN" "http://www.w3.org/Graphics/SVG/1.1/DTD/svg11.dtd">
<svg xmlns="http://www.w3.org/2000/svg" version="1.1" width="512px" height="512px" style="shape-rendering:geometricPrecision; text-rendering:geometricPrecision; image-rendering:optimizeQuality; fill-rule:evenodd; clip-rule:evenodd" xmlns:xlink="http://www.w3.org/1999/xlink">
<g><path style="opacity:0.996" fill="#f89a23" d="M 232.5,-0.5 C 247.833,-0.5 263.167,-0.5 278.5,-0.5C 370.807,10.8856 439.307,57.219 484,138.5C 498.774,168.31 507.941,199.644 511.5,232.5C 511.5,247.833 511.5,263.167 511.5,278.5C 500.114,370.807 453.781,439.307 372.5,484C 342.69,498.774 311.356,507.941 278.5,511.5C 263.167,511.5 247.833,511.5 232.5,511.5C 140.193,500.114 71.6925,453.781 27,372.5C 12.2255,342.69 3.05884,311.356 -0.5,278.5C -0.5,263.167 -0.5,247.833 -0.5,232.5C 10.8856,140.193 57.219,71.6925 138.5,27C 168.31,12.2255 199.644,3.05884 232.5,-0.5 Z"/></g>
<g><path style="opacity:1" fill="#fffaf4" d="M 246.5,110.5 C 275.119,108.534 293.286,121.201 301,148.5C 302.255,180.407 287.089,198.407 255.5,202.5C 223.897,198.394 208.73,180.394 210,148.5C 214.762,128.588 226.929,115.922 246.5,110.5 Z"/></g>
<g><path style="opacity:1" fill="#f89b26" d="M 246.5,117.5 C 270.514,114.748 286.347,124.748 294,147.5C 295.449,180.718 279.615,196.551 246.5,195C 224.109,187.064 214.275,171.231 217,147.5C 221.718,132.283 231.552,122.283 246.5,117.5 Z"/></g>
<g><path style="opacity:1" fill="#fff8ef" d="M 187.5,132.5 C 192.102,132.384 195.935,134.051 199,137.5C 199.667,138.5 199.667,139.5 199,140.5C 194.853,141.708 191.02,140.874 187.5,138C 186.464,136.224 186.464,134.391 187.5,132.5 Z"/></g>
<g><path style="opacity:1" fill="#fff9f3" d="M 318.5,132.5 C 322.677,131.842 324.177,133.508 323,137.5C 320.088,140.544 316.588,141.711 312.5,141C 311.446,139.612 311.28,138.112 312,136.5C 314.314,135.267 316.481,133.933 318.5,132.5 Z"/></g>
<g><path style="opacity:1" fill="#fffaf4" d="M 274.5,138.5 C 278.677,137.842 280.177,139.508 279,143.5C 269.167,153.333 259.333,163.167 249.5,173C 247.833,173.667 246.167,173.667 244.5,173C 240.333,168.833 236.167,164.667 232,160.5C 230.838,156.286 232.338,154.452 236.5,155C 240,158.5 243.5,162 247,165.5C 256.672,156.995 265.838,147.995 274.5,138.5 Z"/></g>
<g><path style="opacity:1" fill="#fff7ee" d="M 185.5,152.5 C 188.518,152.335 191.518,152.502 194.5,153C 196.325,154.466 196.825,156.299 196,158.5C 192.591,159.622 189.091,159.789 185.5,159C 182.939,156.844 182.939,154.677 185.5,152.5 Z"/></g>
<g><path style="opacity:1" fill="#fff7ee" d="M 316.5,152.5 C 319.518,152.335 322.518,152.502 325.5,153C 328.167,155 328.167,157 325.5,159C 322.167,159.667 318.833,159.667 315.5,159C 314.144,156.586 314.478,154.419 316.5,152.5 Z"/></g>
<g><path style="opacity:1" fill="#fff7ec" d="M 193.5,170.5 C 197.509,170.014 199.342,171.68 199,175.5C 195.954,178.279 192.454,179.779 188.5,180C 186.789,178.867 186.289,177.367 187,175.5C 189.326,173.934 191.492,172.268 193.5,170.5 Z"/></g>
<g><path style="opacity:1" fill="#fff8f0" d="M 313.5,170.5 C 316.691,171.092 319.691,172.259 322.5,174C 323.576,175.726 323.743,177.559 323,179.5C 322.439,180.022 321.772,180.355 321,180.5C 316.976,179.418 313.809,177.252 311.5,174C 311.978,172.697 312.645,171.531 313.5,170.5 Z"/></g>
<g><path style="opacity:1" fill="#fffaf4" d="M 115.5,200.5 C 133.608,203.755 151.608,207.589 169.5,212C 171.081,212.707 172.581,213.54 174,214.5C 175.851,218.619 177.018,222.952 177.5,227.5C 182.059,230.53 186.892,232.864 192,234.5C 207.379,226.572 223.546,220.405 240.5,216C 255.904,212.772 270.571,214.772 284.5,222C 296.848,222.406 309.181,223.073 321.5,224C 325.577,224.515 329.577,225.349 333.5,226.5C 333.009,218.831 336.342,213.664 343.5,211C 359.585,207.104 375.752,203.604 392,200.5C 395.804,200.4 398.471,202.066 400,205.5C 401.143,244.165 401.81,282.832 402,321.5C 400.062,324.106 397.562,325.939 394.5,327C 388.124,330.358 381.457,332.858 374.5,334.5C 367.629,333.465 363.462,329.465 362,322.5C 357.163,325.871 355.163,330.538 356,336.5C 354.466,341.872 350.966,344.872 345.5,345.5C 348.028,355.111 344.694,361.778 335.5,365.5C 337.273,381.382 330.273,387.382 314.5,383.5C 312.591,390.063 308.091,393.396 301,393.5C 297.863,392.499 294.697,391.999 291.5,392C 281.558,402.742 271.058,403.242 260,393.5C 258.073,390.052 256.739,386.385 256,382.5C 249.677,391.387 241.177,394.553 230.5,392C 223.633,388.119 219.299,382.286 217.5,374.5C 196.231,378.901 187.231,370.234 190.5,348.5C 184.711,348.189 179.878,345.856 176,341.5C 174.961,339.254 173.794,337.087 172.5,335C 163.681,333.396 155.514,330.229 148,325.5C 143.503,334.665 136.67,336.831 127.5,332C 121.468,329.567 115.634,326.734 110,323.5C 108.877,317.772 108.377,311.939 108.5,306C 109.363,272.501 110.196,239.001 111,205.5C 112.025,203.313 113.525,201.646 115.5,200.5 Z"/></g>
<g><path style="opacity:1" fill="#f89a24" d="M 117.5,206.5 C 134.13,210.431 150.796,214.264 167.5,218C 169.357,219.182 170.357,220.849 170.5,223C 160.631,257.812 150.297,292.479 139.5,327C 137.5,327.667 135.5,327.667 133.5,327C 127.568,324.691 121.734,322.191 116,319.5C 116.278,281.837 116.778,244.17 117.5,206.5 Z"/></g>
<g><path style="opacity:1" fill="#f89a25" d="M 390.5,206.5 C 391.5,206.5 392.5,206.5 393.5,206.5C 393.997,239.836 394.664,273.169 395.5,306.5C 395.167,310.833 394.833,315.167 394.5,319.5C 387.798,322.52 381.131,325.52 374.5,328.5C 372.617,328.124 371.117,327.124 370,325.5C 360.233,291.179 350.4,256.845 340.5,222.5C 340.876,220.617 341.876,219.117 343.5,218C 359.403,214.582 375.07,210.748 390.5,206.5 Z"/></g>
<g><path style="opacity:1" fill="#f89a25" d="M 247.5,221.5 C 267.813,219.437 284.646,226.103 298,241.5C 302.58,247.66 306.914,253.993 311,260.5C 314.359,276.807 307.859,283.64 291.5,281C 283.191,273.023 275.191,264.69 267.5,256C 256.833,248.375 246.5,248.708 236.5,257C 216.667,276.833 196.833,296.667 177,316.5C 174.384,319.729 172.884,323.396 172.5,327.5C 164.927,326.697 157.927,324.197 151.5,320C 150.903,318.938 150.57,317.772 150.5,316.5C 157.811,289.395 165.644,262.395 174,235.5C 174.414,235.043 174.914,234.709 175.5,234.5C 179.66,236.412 183.66,238.579 187.5,241C 190.167,241.667 192.833,241.667 195.5,241C 211.767,231.355 229.1,224.855 247.5,221.5 Z"/></g>
<g><path style="opacity:1" fill="#f89a25" d="M 295.5,230.5 C 297.81,229.836 300.31,229.503 303,229.5C 314.193,230.29 325.359,231.29 336.5,232.5C 344.366,259.433 352.033,286.433 359.5,313.5C 357.914,316.757 355.581,319.424 352.5,321.5C 348.015,317.515 343.682,313.349 339.5,309C 326.222,303.132 318.889,307.299 317.5,321.5C 307.5,321.5 302.5,326.5 302.5,336.5C 293.026,336.306 288.026,340.973 287.5,350.5C 274.257,352.651 270.091,359.984 275,372.5C 279.5,377 284,381.5 288.5,386C 284.125,392.459 278.125,394.792 270.5,393C 265.585,390.506 262.919,386.506 262.5,381C 263.602,377.125 265.269,373.459 267.5,370C 267,368.167 265.833,367 264,366.5C 257.543,371.955 251.376,377.788 245.5,384C 231.423,388.601 224.923,383.434 226,368.5C 234.303,359.196 242.969,350.196 252,341.5C 252.494,339.866 252.66,338.199 252.5,336.5C 250.801,336.34 249.134,336.506 247.5,337C 237.473,347.027 227.473,357.027 217.5,367C 210.22,372.203 203.72,371.37 198,364.5C 196.566,360.594 196.233,356.594 197,352.5C 207.637,340.863 218.637,329.529 230,318.5C 230.514,314.38 228.68,312.88 224.5,314C 215.833,322.667 207.167,331.333 198.5,340C 187.169,344.529 180.503,340.695 178.5,328.5C 178.899,326.803 179.399,325.137 180,323.5C 201.167,302.333 222.333,281.167 243.5,260C 249.565,256.727 255.565,256.727 261.5,260C 270.581,269.081 279.581,278.081 288.5,287C 308.38,291.432 318.546,283.599 319,263.5C 313.662,250.671 305.829,239.671 295.5,230.5 Z"/></g>
<g><path style="opacity:1" fill="#f89c29" d="M 326.5,313.5 C 329.649,313.211 332.649,313.711 335.5,315C 339.667,319.167 343.833,323.333 348,327.5C 351.665,336.166 348.832,339.999 339.5,339C 334.667,334.167 329.833,329.333 325,324.5C 322.771,320.429 323.271,316.762 326.5,313.5 Z"/></g>
<g><path style="opacity:1" fill="#f89b25" d="M 312.5,328.5 C 314.857,328.337 317.19,328.503 319.5,329C 326,335.5 332.5,342 339,348.5C 340.5,356.333 337.333,359.5 329.5,358C 322.667,351.167 315.833,344.333 309,337.5C 308.333,335.833 308.333,334.167 309,332.5C 310.376,331.295 311.542,329.962 312.5,328.5 Z"/></g>
<g><path style="opacity:1" fill="#f89c28" d="M 298.5,342.5 C 300.927,342.523 303.26,343.023 305.5,344C 313,351.5 320.5,359 328,366.5C 330.951,374.553 328.118,378.387 319.5,378C 311.667,370.167 303.833,362.333 296,354.5C 293.511,349.757 294.345,345.757 298.5,342.5 Z"/></g>
<g><path style="opacity:1" fill="#f89b26" d="M 283.5,357.5 C 285.527,357.338 287.527,357.505 289.5,358C 295.667,364.167 301.833,370.333 308,376.5C 309.5,384.333 306.333,387.5 298.5,386C 292.667,380.167 286.833,374.333 281,368.5C 278.542,364.002 279.375,360.336 283.5,357.5 Z"/></g>
</svg>
