<svg width="105" height="74" viewBox="0 0 105 74" fill="none" xmlns="http://www.w3.org/2000/svg">
<path d="M20.2723 5.15502L15.3157 0.198481C15.295 0.220316 15.2736 0.239094 15.2528 0.259837C5.51318 9.99893 0.0287588 23.2001 0.000112779 36.9736C-0.0285332 50.7471 5.40093 63.971 15.1 73.7505L20.0565 68.794C11.6484 60.3247 6.94788 48.8631 6.98833 36.929C7.02878 24.9949 11.8069 13.5653 20.2723 5.15328V5.15502ZM88.901 0.26071C88.8136 0.17337 88.7226 0.0875583 88.6339 0L83.6774 4.95654C87.9203 9.11954 91.2966 14.0817 93.6114 19.5566C95.9263 25.0315 97.1338 30.9107 97.1642 36.8547C97.1947 42.7988 96.0475 48.69 93.7889 54.1883C91.5302 59.6867 88.2049 64.6831 84.0049 68.8894L88.9614 73.8459C98.7006 64.0744 104.164 50.8375 104.153 37.0413C104.141 23.2451 98.6555 10.0173 88.9001 0.262019L88.901 0.26071Z" fill="white"/>
<path d="M29.6089 14.4915C23.6235 20.4294 20.2391 28.4998 20.1986 36.9308C20.1581 45.3617 23.4649 53.4642 29.393 59.4594L34.3314 54.5209C29.7152 49.8345 27.1456 43.5088 27.1861 36.9308C27.2266 30.3528 29.8738 24.0592 34.5473 19.4299L29.6089 14.4915ZM69.4032 19.2308C71.7687 21.5207 73.6555 24.2579 74.9541 27.2832C76.2527 30.3086 76.9371 33.5619 76.9676 36.8541C76.998 40.1462 76.374 43.4116 75.1316 46.4606C73.8893 49.5095 72.0534 52.2811 69.7307 54.6144L74.6713 59.5541C77.6435 56.5729 79.9947 53.0315 81.5886 49.1352C83.1826 45.2389 83.9876 41.065 83.9572 36.8554C83.9267 32.6458 83.0613 28.484 81.4112 24.6112C79.761 20.7383 77.3588 17.2314 74.3438 14.2935L69.4032 19.2308ZM60.4493 28.1847C58.4014 26.2634 55.7538 25.1068 52.9527 24.9098C50.1516 24.7128 47.3682 25.4874 45.0715 27.1031C42.7748 28.7187 41.1053 31.0767 40.3442 33.7797C39.5832 36.4826 39.7771 39.3653 40.8934 41.9419C42.0097 44.5185 43.98 46.6316 46.4724 47.9251C48.9648 49.2185 51.8269 49.6133 54.5764 49.0428C57.3259 48.4723 59.7947 46.9715 61.5668 44.7932C63.3388 42.615 64.3059 39.8924 64.3049 37.0844C64.306 35.416 63.9644 33.7651 63.3012 32.2342C62.6379 30.7033 61.6672 29.3249 60.4493 28.1847ZM52.0773 42.3248C51.0409 42.3248 50.0277 42.0174 49.1659 41.4416C48.3041 40.8658 47.6325 40.0474 47.2358 39.0898C46.8392 38.1322 46.7354 37.0786 46.9376 36.062C47.1398 35.0455 47.6389 34.1117 48.3718 33.3789C49.1047 32.646 50.0384 32.1469 51.055 31.9447C52.0715 31.7425 53.1252 31.8463 54.0827 32.2429C55.0403 32.6395 55.8587 33.3112 56.4346 34.173C57.0104 35.0348 57.3177 36.0479 57.3177 37.0844C57.3177 38.4742 56.7656 39.8071 55.7828 40.7899C54.8001 41.7727 53.4672 42.3248 52.0773 42.3248Z" fill="white"/>
</svg>
