<?xml version="1.0" encoding="UTF-8"?>
<!DOCTYPE svg PUBLIC "-//W3C//DTD SVG 1.1//EN" "http://www.w3.org/Graphics/SVG/1.1/DTD/svg11.dtd">
<svg xmlns="http://www.w3.org/2000/svg" version="1.1" width="512px" height="512px" style="shape-rendering:geometricPrecision; text-rendering:geometricPrecision; image-rendering:optimizeQuality; fill-rule:evenodd; clip-rule:evenodd" xmlns:xlink="http://www.w3.org/1999/xlink">
<g><path style="opacity:0.996" fill="#f89a23" d="M 232.5,-0.5 C 247.833,-0.5 263.167,-0.5 278.5,-0.5C 369.805,10.8845 437.971,56.5512 483,136.5C 498.303,166.898 507.803,198.898 511.5,232.5C 511.5,247.833 511.5,263.167 511.5,278.5C 498.225,380.566 444.558,452.399 350.5,494C 327.127,502.969 303.127,508.802 278.5,511.5C 263.167,511.5 247.833,511.5 232.5,511.5C 140.195,500.115 71.6952,453.782 27,372.5C 12.2255,342.69 3.05884,311.356 -0.5,278.5C -0.5,263.167 -0.5,247.833 -0.5,232.5C 10.8856,140.193 57.219,71.6925 138.5,27C 168.31,12.2255 199.644,3.05884 232.5,-0.5 Z"/></g>
<g><path style="opacity:1" fill="#fffcf9" d="M 316.5,91.5 C 331.539,91.1997 340.205,98.5331 342.5,113.5C 355.858,110.095 365.025,114.762 370,127.5C 370.333,145.833 370.667,164.167 371,182.5C 382.665,169.53 394.665,169.196 407,181.5C 410.531,189.326 410.198,196.992 406,204.5C 398.031,213.47 389.697,222.137 381,230.5C 380.667,239.833 380.333,249.167 380,258.5C 376.536,275.133 366.37,284.133 349.5,285.5C 349.667,329.168 349.5,372.835 349,416.5C 348.097,417.701 346.931,418.535 345.5,419C 322.5,419.667 299.5,419.667 276.5,419C 275.667,418.167 274.833,417.333 274,416.5C 273.5,372.835 273.333,329.168 273.5,285.5C 256.623,284.125 246.457,275.125 243,258.5C 242.333,221.167 242.333,183.833 243,146.5C 248.362,133.9 257.529,129.567 270.5,133.5C 272.875,115.794 282.875,108.461 300.5,111.5C 301.796,101.543 307.13,94.8766 316.5,91.5 Z"/></g>
<g><path style="opacity:1" fill="#f89a24" d="M 317.5,103.5 C 322.635,102.426 326.468,104.093 329,108.5C 329.333,127.167 329.667,145.833 330,164.5C 334.163,168.747 337.829,168.414 341,163.5C 341.039,151.071 341.706,138.738 343,126.5C 348.673,122.168 353.673,122.835 358,128.5C 358.019,152.588 358.686,176.588 360,200.5C 362.153,202.444 364.653,202.944 367.5,202C 372.833,196.667 378.167,191.333 383.5,186C 393.353,181.52 398.186,184.687 398,195.5C 388.333,205.833 378.667,216.167 369,226.5C 368.667,237.167 368.333,247.833 368,258.5C 366.277,265.449 362.111,270.282 355.5,273C 326.167,273.667 296.833,273.667 267.5,273C 260.903,270.737 256.736,266.237 255,259.5C 254.333,222.5 254.333,185.5 255,148.5C 257.435,143.776 261.269,142.276 266.5,144C 267.931,144.465 269.097,145.299 270,146.5C 271.282,156.067 271.949,165.734 272,175.5C 275.667,180.833 279.333,180.833 283,175.5C 283.333,159.167 283.667,142.833 284,126.5C 289.841,119.606 295.175,119.939 300,127.5C 300.333,148.167 300.667,168.833 301,189.5C 304.667,194.833 308.333,194.833 312,189.5C 312.333,162.5 312.667,135.5 313,108.5C 314.025,106.313 315.525,104.646 317.5,103.5 Z"/></g>
<g><path style="opacity:1" fill="#fffcfa" d="M 205.5,184.5 C 205.167,198.183 205.501,211.85 206.5,225.5C 207.107,225.376 207.44,225.043 207.5,224.5C 213.857,217.992 221.191,216.826 229.5,221C 239.644,230.289 240.144,240.122 231,250.5C 225.333,256.167 219.667,261.833 214,267.5C 213.667,275.5 213.333,283.5 213,291.5C 209.677,303.418 201.844,310.085 189.5,311.5C 189.667,346.168 189.5,380.835 189,415.5C 188.5,417.333 187.333,418.5 185.5,419C 166.833,419.667 148.167,419.667 129.5,419C 127.667,418.5 126.5,417.333 126,415.5C 125.5,380.835 125.333,346.168 125.5,311.5C 115.093,310.261 107.593,304.928 103,295.5C 101.862,278.55 101.362,261.55 101.5,244.5C 101.667,228.833 101.833,213.167 102,197.5C 106.578,187.737 114.078,184.07 124.5,186.5C 126.495,172.494 134.495,166.827 148.5,169.5C 149.571,159.439 155.237,154.106 165.5,153.5C 175.536,154.869 181.203,160.536 182.5,170.5C 194.553,168.346 202.219,173.013 205.5,184.5 Z"/></g>
<g><path style="opacity:1" fill="#f89b26" d="M 162.5,165.5 C 166.355,164.845 169.188,166.179 171,169.5C 171.333,184.5 171.667,199.5 172,214.5C 174.497,216.478 177.331,216.978 180.5,216C 181.126,215.25 181.626,214.416 182,213.5C 182.049,203.401 182.716,193.401 184,183.5C 188.094,180.524 191.427,181.191 194,185.5C 194.024,204.923 194.691,224.256 196,243.5C 197.913,245.187 200.08,245.687 202.5,245C 207.801,240.7 212.801,236.034 217.5,231C 223.338,229.52 226.171,231.687 226,237.5C 218.333,245.833 210.667,254.167 203,262.5C 202.667,271.5 202.333,280.5 202,289.5C 199.744,294.757 195.91,298.257 190.5,300C 168.5,300.667 146.5,300.667 124.5,300C 119.09,298.257 115.256,294.757 113,289.5C 112.333,259.833 112.333,230.167 113,200.5C 116.667,196.5 120.333,196.5 124,200.5C 124.333,208.167 124.667,215.833 125,223.5C 128.333,227.5 131.667,227.5 135,223.5C 135.333,210.5 135.667,197.5 136,184.5C 138.218,180.685 141.384,179.685 145.5,181.5C 146.192,182.025 146.692,182.692 147,183.5C 147.333,200.5 147.667,217.5 148,234.5C 151.667,238.5 155.333,238.5 159,234.5C 159.333,212.5 159.667,190.5 160,168.5C 161.045,167.627 161.878,166.627 162.5,165.5 Z"/></g>
<g><path style="opacity:1" fill="#fbca8c" d="M 205.5,184.5 C 206.167,197.833 206.833,211.167 207.5,224.5C 207.44,225.043 207.107,225.376 206.5,225.5C 205.501,211.85 205.167,198.183 205.5,184.5 Z"/></g>
<g><path style="opacity:1" fill="#fffcfa" d="M 293.5,198.5 C 299.913,197.971 305.913,199.304 311.5,202.5C 322.039,196.615 332.039,197.448 341.5,205C 351.128,215.523 351.962,226.69 344,238.5C 334.167,248.333 324.333,258.167 314.5,268C 312.5,268.667 310.5,268.667 308.5,268C 298.333,257.833 288.167,247.667 278,237.5C 269.323,218.868 274.49,205.868 293.5,198.5 Z"/></g>
<g><path style="opacity:1" fill="#f89b25" d="M 293.5,210.5 C 296.187,210.336 298.854,210.503 301.5,211C 304.984,212.357 308.317,213.857 311.5,215.5C 314.589,214.26 317.589,212.76 320.5,211C 327.975,209.265 333.475,211.765 337,218.5C 338.109,223.648 337.109,228.315 334,232.5C 326.652,240.015 319.152,247.348 311.5,254.5C 303.181,246.681 295.014,238.681 287,230.5C 283.406,221.788 285.573,215.121 293.5,210.5 Z"/></g>
<g><path style="opacity:1" fill="#f89a24" d="M 284.5,285.5 C 302.5,285.5 320.5,285.5 338.5,285.5C 338.5,326.167 338.5,366.833 338.5,407.5C 320.5,407.5 302.5,407.5 284.5,407.5C 284.5,366.833 284.5,326.167 284.5,285.5 Z"/></g>
<g><path style="opacity:1" fill="#f89a23" d="M 137.5,311.5 C 150.833,311.5 164.167,311.5 177.5,311.5C 177.5,343.5 177.5,375.5 177.5,407.5C 164.167,407.5 150.833,407.5 137.5,407.5C 137.5,375.5 137.5,343.5 137.5,311.5 Z"/></g>
</svg>
