<?xml version="1.0" standalone="no"?>
<!DOCTYPE svg PUBLIC "-//W3C//DTD SVG 20010904//EN"
 "http://www.w3.org/TR/2001/REC-SVG-20010904/DTD/svg10.dtd">
<svg version="1.0" xmlns="http://www.w3.org/2000/svg"
 width="1173.000000pt" height="1034.000000pt" viewBox="0 0 1173.000000 1034.000000"
 preserveAspectRatio="xMidYMid meet">

<g transform="translate(0.000000,1034.000000) scale(0.100000,-0.100000)"
fill="#000000" stroke="none">
<path d="M2635 8443 c-710 -779 -1291 -1422 -1293 -1430 -3 -10 27 -13 150
-13 84 0 203 -3 263 -6 l110 -6 1049 1173 1049 1172 -7 221 c-7 226 -13 306
-25 306 -3 0 -587 -637 -1296 -1417z"/>
<path d="M5774 8444 c-709 -778 -1289 -1421 -1289 -1427 0 -9 66 -14 245 -20
135 -4 252 -6 261 -5 9 2 488 530 1064 1173 l1047 1170 -6 155 c-10 258 -18
370 -26 370 -4 0 -587 -637 -1296 -1416z"/>
<path d="M9140 8449 c-707 -776 -1289 -1417 -1295 -1425 -5 -7 -7 -15 -5 -17
3 -2 123 -7 267 -10 l262 -6 1043 1166 c574 641 1046 1172 1049 1182 4 13 -14
509 -20 519 0 1 -4 2 -8 2 -5 0 -586 -635 -1293 -1411z"/>
<path d="M3085 7959 c-462 -512 -841 -935 -843 -940 -2 -5 104 -9 267 -9 l270
0 578 638 c318 351 586 648 597 660 18 21 18 32 7 264 -12 254 -18 318 -29
317 -4 0 -385 -419 -847 -930z"/>
<path d="M6217 7953 l-847 -938 67 -6 c94 -9 334 -10 415 -3 l67 7 368 406
c202 223 464 511 582 641 117 129 220 244 227 256 12 18 12 61 -1 290 -8 148
-15 272 -15 277 0 4 -3 7 -8 7 -4 0 -389 -422 -855 -937z"/>
<path d="M10338 8788 c-52 -57 -435 -480 -851 -940 -537 -595 -751 -838 -740
-842 8 -3 129 -6 268 -6 l253 0 60 63 c32 34 303 331 601 660 l541 597 0 53
c0 99 -23 492 -30 505 -4 9 -37 -19 -102 -90z"/>
<path d="M3874 7874 c-72 -81 -516 -616 -628 -756 -43 -54 -75 -102 -71 -108
4 -6 83 -10 219 -10 189 0 216 2 234 18 11 9 85 94 166 189 l146 171 -2 283
-3 282 -61 -69z"/>
<path d="M6682 7478 c-255 -310 -377 -465 -369 -470 15 -10 429 -10 443 0 5 4
81 89 167 190 l157 183 0 280 c0 155 -4 279 -9 279 -5 0 -180 -208 -389 -462z"/>
<path d="M10050 7484 c-206 -251 -376 -462 -378 -470 -3 -12 34 -14 221 -14
l224 0 161 188 162 187 0 283 c0 155 -3 282 -7 282 -5 -1 -177 -206 -383 -456z"/>
<path d="M1349 6268 c-17 -17 -226 -1055 -215 -1066 12 -11 137 -6 145 6 4 6
24 101 46 211 l39 199 95 7 c256 18 422 142 477 354 33 132 -21 239 -141 278
-72 23 -425 32 -446 11z m363 -128 c21 -6 44 -21 53 -33 19 -28 19 -101 0
-158 -42 -122 -142 -192 -287 -203 -42 -3 -79 -2 -81 2 -9 14 71 395 85 404
16 11 177 2 230 -12z"/>
<path d="M4381 6226 c-6 -25 -11 -56 -11 -70 0 -25 2 -26 69 -26 l69 0 11 50
c20 91 20 90 -58 90 l-69 0 -11 -44z"/>
<path d="M5571 6247 c-5 -13 -12 -45 -16 -70 l-7 -47 70 0 71 0 10 38 c5 20
12 52 15 70 l6 32 -70 0 c-65 0 -71 -2 -79 -23z"/>
<path d="M3900 6143 c-90 -13 -88 -12 -95 -46 -4 -18 -11 -49 -16 -69 l-10
-38 -59 0 c-32 0 -61 -3 -63 -7 -3 -5 -8 -29 -12 -55 l-7 -48 55 0 c31 0 58
-3 60 -8 3 -4 -13 -95 -34 -202 -70 -345 -70 -376 -6 -438 39 -37 81 -52 152
-52 83 0 92 6 104 61 6 28 11 52 11 54 0 3 -27 2 -59 -1 -55 -6 -61 -5 -85 19
-14 14 -26 37 -26 50 0 19 76 414 95 495 5 21 10 22 99 22 l94 0 6 31 c16 79
16 79 -84 79 -89 0 -90 0 -85 23 20 87 25 119 20 128 -6 9 -10 9 -55 2z"/>
<path d="M7871 6140 c-61 -9 -67 -15 -76 -78 -11 -71 -11 -72 -75 -72 -33 0
-61 -4 -64 -9 -4 -5 -9 -30 -12 -55 l-7 -46 57 0 c52 0 56 -2 56 -23 0 -13
-18 -112 -40 -221 -54 -272 -57 -309 -28 -366 31 -60 89 -90 172 -90 90 0 103
6 111 48 3 21 8 45 11 54 5 16 -1 17 -53 12 -50 -5 -62 -3 -85 16 -37 29 -36
46 20 330 l47 235 95 5 c103 5 106 8 109 83 l1 27 -90 0 c-49 0 -90 3 -90 8 1
4 7 36 15 72 7 35 11 68 9 72 -6 9 -6 9 -83 -2z"/>
<path d="M2415 5997 c-89 -23 -147 -59 -232 -143 -69 -69 -89 -97 -132 -185
-98 -203 -108 -358 -27 -446 28 -31 40 -37 88 -41 45 -3 67 1 110 20 76 36
156 105 223 195 77 101 75 99 70 77 -2 -10 -14 -74 -27 -142 -25 -138 -24
-142 42 -142 56 0 78 10 85 38 14 54 135 664 141 711 l6 48 -98 6 c-55 4 -121
9 -149 11 -27 3 -72 0 -100 -7z m149 -111 l34 -14 -19 -93 c-11 -50 -23 -97
-27 -103 -5 -6 -47 -58 -94 -116 -129 -159 -222 -240 -274 -240 -80 0 -72 168
16 347 87 177 242 270 364 219z"/>
<path d="M3463 5996 c-77 -25 -190 -124 -275 -242 -18 -25 -34 -42 -35 -37 -2
5 7 66 20 136 13 70 21 129 19 132 -3 3 -34 5 -69 5 -56 0 -64 -3 -73 -22 -12
-28 -150 -725 -150 -755 0 -22 4 -23 65 -23 78 0 75 -3 104 145 12 61 26 120
31 133 15 35 156 219 219 286 68 71 100 89 171 96 l54 5 14 69 c11 57 11 70 0
77 -18 12 -45 10 -95 -5z"/>
<path d="M5010 5997 c-77 -19 -116 -37 -186 -90 -138 -105 -224 -274 -224
-443 0 -102 23 -170 74 -220 56 -54 110 -68 224 -61 97 6 237 48 251 76 15 26
29 121 19 121 -5 0 -27 -9 -49 -21 -47 -24 -179 -59 -222 -59 -43 0 -97 29
-118 64 -28 47 -26 180 5 267 73 208 216 293 415 247 28 -6 53 -9 56 -6 3 3 8
28 12 56 l6 51 -39 10 c-67 18 -166 21 -224 8z"/>
<path d="M6373 5995 c-23 -7 -62 -24 -85 -38 -50 -29 -172 -152 -213 -215 -15
-23 -30 -40 -32 -38 -3 2 7 62 21 132 14 70 26 133 26 141 0 9 -17 13 -62 13
-35 0 -68 -4 -74 -8 -10 -7 -214 -1006 -214 -1050 0 -20 5 -22 69 -22 l70 0
11 58 c7 31 19 93 28 136 l17 80 110 0 c102 1 115 3 175 32 120 58 208 148
279 284 121 233 114 442 -15 496 -40 17 -56 17 -111 -1z m41 -157 c50 -71 -30
-325 -140 -447 -70 -78 -144 -109 -250 -103 -16 1 -38 8 -47 15 -16 11 -16 18
-2 90 8 43 22 91 30 107 17 33 198 252 236 286 82 74 145 92 173 52z"/>
<path d="M7125 5997 c-89 -23 -147 -59 -232 -143 -69 -70 -89 -97 -131 -185
-79 -163 -100 -284 -67 -381 35 -101 128 -135 237 -86 76 35 164 113 233 206
33 44 61 80 62 78 1 -1 -9 -64 -24 -139 -15 -75 -24 -140 -19 -144 13 -13 127
-7 136 7 8 14 135 647 146 731 l6 46 -98 6 c-55 4 -121 9 -149 11 -27 3 -72 0
-100 -7z m144 -108 c36 -13 38 -24 16 -129 -13 -61 -24 -83 -77 -153 -124
-163 -259 -287 -312 -287 -82 0 -75 165 14 347 86 174 233 266 359 222z"/>
<path d="M8552 6000 c-63 -13 -141 -52 -189 -94 -63 -55 -139 -175 -167 -264
-67 -214 -31 -374 100 -438 50 -24 62 -26 152 -22 82 3 107 8 157 32 124 60
237 215 280 386 23 88 17 219 -12 275 -27 51 -78 99 -121 113 -49 17 -150 22
-200 12z m133 -132 c41 -32 55 -76 55 -172 0 -98 -24 -186 -71 -261 -45 -73
-68 -95 -124 -121 -127 -60 -212 -8 -223 137 -11 161 66 340 177 411 59 37
143 40 186 6z"/>
<path d="M9603 6000 c-17 -4 -51 -19 -75 -33 -50 -29 -182 -162 -223 -225 -15
-23 -30 -40 -32 -38 -3 2 7 62 21 132 14 70 26 133 26 141 0 10 -18 13 -69 13
-58 0 -71 -3 -75 -18 -5 -13 -156 -760 -156 -768 0 -7 82 -12 111 -8 l36 6 29
137 28 136 79 105 c173 228 221 270 313 270 l53 0 11 58 c6 31 12 65 14 74 6
27 -27 34 -91 18z"/>
<path d="M4335 5980 c-11 -17 -157 -772 -151 -778 13 -13 112 -13 127 0 12 9
39 125 92 392 42 208 74 383 71 387 -7 13 -132 11 -139 -1z"/>
<path d="M5516 5972 c-5 -13 -156 -760 -156 -768 0 -7 83 -12 111 -8 l36 6 77
382 c42 209 76 387 76 394 0 8 -21 12 -69 12 -58 0 -71 -3 -75 -18z"/>
<path d="M9790 5970 c0 -12 27 -183 60 -380 33 -197 60 -369 60 -381 0 -12
-36 -79 -80 -149 -44 -70 -80 -133 -80 -139 0 -8 20 -11 66 -9 l66 3 329 525
c181 289 329 531 329 538 0 8 -19 12 -64 12 l-64 0 -184 -295 c-100 -162 -186
-295 -189 -295 -3 0 -28 132 -55 293 l-49 292 -72 3 c-68 3 -73 2 -73 -18z"/>
<path d="M4852 4753 c-16 -31 -226 -1122 -218 -1130 9 -10 122 -10 132 -1 9
10 233 1131 227 1141 -2 4 -33 7 -68 7 -51 0 -66 -4 -73 -17z"/>
<path d="M1341 4679 c-17 -39 -213 -1040 -207 -1055 4 -11 38 -14 173 -14 300
0 427 25 546 105 116 77 224 235 274 400 13 45 18 93 18 195 0 119 -3 141 -23
184 -30 67 -66 112 -112 142 -71 47 -125 56 -402 61 l-257 5 -10 -23z m374
-109 c143 -17 219 -62 256 -155 17 -44 14 -199 -6 -275 -21 -82 -85 -206 -136
-264 -88 -100 -180 -134 -381 -143 -131 -6 -138 -5 -138 13 0 10 37 202 81
427 l82 407 76 0 c42 0 116 -5 166 -10z"/>
<path d="M10180 4561 c-25 -4 -50 -10 -56 -14 -7 -4 -17 -36 -24 -72 l-12 -65
-59 0 c-65 0 -72 -7 -81 -76 -3 -29 -3 -29 55 -32 34 -2 57 -8 57 -14 0 -7
-21 -116 -46 -242 -63 -319 -58 -370 47 -424 37 -19 56 -23 116 -20 40 2 77 8
83 14 5 5 13 31 16 57 l7 48 -41 -7 c-78 -12 -122 14 -122 73 0 37 86 488 96
504 3 5 45 9 94 9 l89 0 11 41 c18 65 12 69 -86 69 l-87 0 7 38 c3 20 9 56 13
80 6 47 10 45 -77 33z"/>
<path d="M2600 4415 c-199 -56 -370 -302 -370 -535 0 -133 43 -214 138 -257
50 -23 63 -25 156 -20 101 5 189 28 282 73 36 18 40 24 53 82 7 35 11 65 8 68
-2 3 -33 -11 -68 -30 -87 -47 -188 -76 -264 -76 -54 0 -68 4 -96 27 -37 31
-59 78 -59 125 l0 34 81 12 c190 30 327 113 392 236 30 57 31 163 1 203 -44
61 -153 86 -254 58z m104 -126 c19 -15 26 -30 26 -55 0 -103 -116 -186 -293
-209 l-48 -6 7 28 c21 95 97 198 176 237 63 31 97 33 132 5z"/>
<path d="M4200 4415 c-77 -22 -136 -59 -205 -129 -133 -136 -201 -363 -155
-521 18 -63 87 -135 146 -153 95 -28 263 -5 395 54 46 21 61 33 65 53 3 14 10
43 16 65 5 21 7 40 5 42 -2 2 -40 -14 -83 -36 -133 -66 -269 -89 -334 -55 -38
19 -70 82 -70 135 0 34 3 40 20 40 108 0 307 79 382 153 116 113 124 287 15
340 -51 25 -131 30 -197 12z m105 -130 c31 -30 32 -68 2 -120 -40 -71 -139
-122 -270 -140 l-49 -7 7 34 c23 107 126 229 209 248 55 14 76 11 101 -15z"/>
<path d="M5430 4420 c-175 -37 -315 -196 -371 -419 -41 -165 -6 -303 94 -365
42 -26 61 -30 137 -34 71 -4 100 0 151 17 153 51 269 196 320 400 48 189 1
334 -124 386 -48 20 -148 27 -207 15z m135 -132 c41 -32 55 -76 55 -172 0
-106 -25 -190 -83 -276 -99 -148 -259 -174 -318 -53 -19 39 -21 56 -17 136 9
154 74 290 172 355 40 27 58 32 106 32 44 0 64 -5 85 -22z"/>
<path d="M6494 4421 c-88 -22 -212 -122 -296 -242 -22 -33 -43 -57 -45 -55 -3
2 7 62 21 132 14 70 26 133 26 141 0 10 -18 13 -70 13 l-69 0 -10 -37 c-15
-58 -201 -1006 -201 -1026 0 -14 10 -17 69 -17 l70 0 11 58 c7 31 19 93 28
136 l17 80 110 0 c102 1 115 3 175 32 120 58 208 148 279 284 98 189 114 355
44 449 -40 52 -90 68 -159 52z m30 -163 c49 -69 -29 -321 -136 -443 -74 -84
-171 -123 -260 -104 -26 6 -50 14 -53 19 -3 4 3 49 14 98 17 85 22 95 86 177
181 232 302 320 349 253z"/>
<path d="M7364 4412 c-28 -10 -68 -32 -90 -49 -55 -44 -145 -140 -180 -192
-16 -25 -30 -38 -32 -30 -1 8 9 68 22 134 13 66 22 123 20 127 -8 12 -132 10
-139 -2 -11 -19 -156 -764 -151 -777 7 -17 120 -18 133 0 6 6 22 72 36 146
l27 135 84 110 c93 122 195 230 239 253 34 17 65 9 72 -20 3 -12 -21 -157 -54
-322 -32 -165 -57 -302 -54 -305 7 -7 130 -6 137 1 4 3 19 69 34 145 l27 140
80 104 c97 127 223 257 259 266 35 8 56 -11 56 -50 0 -18 -25 -155 -55 -306
-30 -151 -55 -280 -55 -286 0 -17 76 -27 115 -16 l29 8 63 310 c34 170 62 327
63 349 1 91 -65 152 -150 139 -24 -3 -67 -17 -95 -31 -60 -31 -167 -136 -220
-216 -21 -31 -40 -55 -42 -53 -3 3 0 28 6 56 24 112 9 198 -40 228 -34 21 -92
23 -145 4z"/>
<path d="M8570 4417 c-83 -24 -124 -50 -202 -128 -59 -58 -86 -94 -113 -150
-44 -95 -65 -177 -65 -260 0 -128 42 -208 132 -253 43 -22 66 -26 133 -26 94
0 208 26 292 67 58 28 58 28 72 90 8 35 12 65 10 68 -3 2 -34 -11 -70 -29
-149 -79 -307 -99 -365 -46 -33 31 -54 79 -54 123 l0 34 83 12 c163 25 299 98
364 195 78 115 67 235 -26 289 -40 24 -133 31 -191 14z m88 -123 c57 -40 42
-116 -36 -184 -46 -41 -125 -71 -219 -84 -40 -6 -43 -5 -43 18 0 55 66 167
125 212 37 28 97 53 130 54 11 0 31 -7 43 -16z"/>
<path d="M9558 4416 c-26 -7 -66 -25 -88 -41 -51 -36 -149 -140 -195 -208 -19
-28 -35 -45 -35 -36 0 8 11 71 24 139 14 68 22 128 20 132 -7 11 -132 10 -139
-1 -10 -17 -157 -772 -152 -778 12 -11 93 -14 118 -5 24 9 28 21 52 144 30
146 30 146 159 310 162 205 278 265 278 144 0 -23 -24 -162 -54 -310 -46 -233
-52 -269 -39 -282 15 -15 51 -18 100 -8 l30 6 63 311 c63 319 68 367 39 430
-25 55 -98 77 -181 53z"/>
<path d="M3088 4405 c-9 -10 93 -780 105 -787 7 -5 41 -7 75 -6 l64 3 243 390
c133 215 241 393 238 398 -2 4 -32 7 -67 7 l-62 0 -164 -267 c-90 -148 -175
-286 -189 -308 -22 -35 -25 -38 -32 -20 -4 11 -22 139 -39 285 -17 146 -34
275 -37 288 -5 20 -11 22 -67 22 -35 0 -65 -2 -68 -5z"/>
<path d="M1616 3088 c-81 -129 -596 -1041 -591 -1048 7 -11 104 -14 129 -4 9
3 50 66 92 140 l76 134 229 0 228 0 10 -37 c5 -21 17 -76 26 -123 25 -131 16
-120 101 -120 67 0 74 2 74 20 0 15 -136 735 -191 1008 l-10 52 -79 0 c-72 0
-81 -2 -94 -22z m93 -410 c24 -117 46 -221 49 -230 4 -17 -9 -18 -177 -18 -99
0 -181 3 -181 7 0 12 252 453 259 453 3 0 26 -96 50 -212z"/>
<path d="M5414 3083 c-3 -16 -10 -43 -15 -62 -4 -19 -6 -38 -3 -43 3 -4 36 -8
74 -8 l68 0 11 50 c20 91 20 90 -59 90 -68 0 -70 -1 -76 -27z"/>
<path d="M6845 2983 c-95 -11 -92 -10 -105 -66 -6 -29 -14 -60 -16 -69 -4 -13
-19 -18 -67 -20 l-62 -3 -9 -48 c-11 -58 -3 -67 65 -67 l46 0 -44 -217 c-67
-336 -62 -397 37 -451 39 -20 56 -23 122 -20 42 2 80 6 84 10 4 4 9 29 12 56
l4 49 -56 -5 c-49 -4 -60 -1 -81 18 -17 16 -25 34 -24 54 0 17 21 137 47 266
l47 235 93 6 c50 3 94 8 96 10 3 2 8 28 12 57 l7 52 -91 0 -91 0 5 33 c4 17
10 48 13 67 8 36 5 61 -7 59 -4 -1 -20 -4 -37 -6z"/>
<path d="M2475 2840 c-70 -10 -130 -43 -165 -92 -45 -61 -54 -108 -36 -172 13
-44 35 -74 131 -180 101 -111 115 -131 115 -162 0 -46 -14 -70 -52 -90 -46
-24 -145 -14 -238 24 -41 16 -78 27 -82 23 -4 -3 -10 -32 -14 -62 l-6 -57 68
-23 c58 -20 89 -24 189 -24 115 0 122 1 174 30 73 40 104 89 109 169 5 87 -12
118 -138 255 -60 66 -112 131 -116 145 -8 32 14 77 46 93 42 21 138 16 205
-12 33 -14 63 -25 67 -25 4 0 12 25 18 56 13 64 12 67 -54 85 -43 12 -146 30
-161 28 -5 -1 -33 -5 -60 -9z"/>
<path d="M3205 2840 c-114 -17 -189 -85 -209 -189 -14 -74 14 -122 173 -294
69 -76 81 -94 81 -124 0 -45 -14 -69 -50 -88 -46 -24 -125 -18 -220 15 -47 17
-89 32 -94 33 -5 1 -15 -24 -21 -57 l-13 -58 32 -13 c87 -37 149 -47 250 -43
113 5 157 21 213 80 40 41 53 76 53 136 -1 70 -27 117 -130 227 -141 152 -154
182 -101 236 26 26 36 29 90 29 37 0 84 -8 119 -21 96 -35 89 -36 101 21 6 28
11 55 11 60 0 13 -118 48 -180 53 -30 3 -78 1 -105 -3z"/>
<path d="M3998 2840 c-25 -4 -74 -20 -108 -36 -119 -53 -237 -216 -276 -379
-22 -95 -16 -225 14 -281 27 -52 81 -100 129 -113 61 -17 174 -13 244 9 182
57 333 297 334 530 0 73 -4 93 -28 143 -31 61 -71 98 -127 115 -52 17 -129 22
-182 12z m112 -125 c41 -21 63 -68 68 -150 8 -128 -38 -262 -121 -352 -76 -84
-185 -109 -246 -58 -43 37 -54 81 -49 198 3 92 7 109 40 178 40 86 94 151 147
179 44 23 121 25 161 5z"/>
<path d="M4880 2840 c-142 -26 -265 -115 -354 -257 -68 -110 -98 -286 -67
-396 18 -62 79 -131 136 -153 99 -37 382 12 405 71 12 31 23 115 16 115 -4 0
-24 -9 -45 -20 -53 -26 -177 -60 -224 -60 -45 0 -88 20 -115 55 -46 58 -35
212 23 330 47 96 85 138 157 174 70 35 146 41 235 18 59 -16 57 -17 68 56 6
39 4 46 -12 51 -18 6 -163 26 -173 25 -3 -1 -25 -5 -50 -9z"/>
<path d="M6087 2840 c-161 -28 -329 -182 -410 -375 -80 -191 -75 -344 12 -418
96 -81 296 23 435 226 22 31 41 56 43 54 1 -2 -9 -63 -23 -135 -15 -72 -24
-138 -20 -148 5 -13 17 -16 66 -12 33 2 63 7 66 11 8 8 153 731 154 763 0 20
-7 21 -112 27 -62 4 -124 9 -138 11 -14 2 -47 1 -73 -4z m116 -111 c42 -11 42
-13 26 -108 -15 -85 -23 -100 -117 -218 -208 -259 -332 -315 -332 -148 0 147
100 353 208 427 80 55 139 68 215 47z"/>
<path d="M7500 2836 c-192 -42 -356 -241 -388 -471 -23 -167 40 -302 155 -334
101 -28 281 -3 403 57 l55 27 12 64 c7 35 12 65 11 67 -2 1 -42 -17 -89 -40
-133 -65 -263 -85 -329 -51 -37 19 -70 82 -70 133 l0 39 62 7 c150 17 306 94
375 185 85 110 76 260 -18 303 -50 23 -116 28 -179 14z m69 -121 c95 -49 19
-192 -129 -244 -30 -11 -81 -22 -113 -26 l-58 -7 7 28 c27 117 107 216 201
250 49 17 58 17 92 -1z"/>
<path d="M8219 2840 c-119 -21 -201 -107 -201 -209 0 -71 20 -106 141 -239 97
-108 111 -128 111 -158 0 -46 -14 -70 -52 -90 -46 -24 -145 -14 -238 23 -85
35 -87 34 -97 -46 l-5 -49 68 -23 c58 -20 89 -24 189 -24 115 0 122 1 174 30
73 40 104 89 109 171 6 87 -15 124 -143 261 -57 62 -107 124 -111 137 -8 32
14 77 46 93 41 21 131 16 204 -12 37 -14 68 -25 71 -25 2 0 9 25 15 56 14 65
13 66 -65 88 -67 19 -159 26 -216 16z"/>
<path d="M5372 2822 c-14 -10 -166 -756 -158 -778 4 -10 24 -14 70 -14 60 0
66 2 71 23 3 12 38 189 79 392 49 251 69 372 62 377 -15 10 -108 10 -124 0z"/>
<path d="M10384 2759 c-4 -7 -17 -57 -28 -112 l-22 -101 -62 3 c-80 3 -154
-29 -220 -97 -84 -86 -145 -246 -128 -336 9 -47 55 -96 90 -96 59 0 149 60
211 142 21 27 39 47 41 46 1 -2 -4 -36 -13 -76 -8 -40 -12 -80 -9 -88 3 -8 19
-14 41 -14 27 0 38 5 45 23 16 36 142 696 135 707 -8 14 -72 13 -81 -1z m-81
-291 c43 -33 -39 -187 -158 -297 -110 -101 -155 -40 -93 127 39 105 122 181
199 182 19 0 43 -6 52 -12z"/>
<path d="M9185 2708 c-12 -32 -125 -616 -125 -645 l0 -33 200 0 c187 0 200 1
210 19 5 11 10 29 10 40 0 20 -5 21 -155 21 -117 0 -155 3 -155 13 0 6 25 136
55 287 30 151 55 283 55 293 0 14 -9 17 -45 17 -27 0 -48 -5 -50 -12z"/>
<path d="M9717 2633 c-10 -3 -21 -21 -28 -49 -11 -42 -13 -44 -49 -44 -31 0
-39 -4 -44 -22 -11 -42 -7 -48 29 -48 43 0 43 2 10 -160 -14 -68 -25 -146 -25
-175 0 -44 4 -55 30 -80 26 -24 39 -29 85 -29 59 -1 72 6 77 44 3 23 0 25 -34
25 -22 0 -44 7 -55 17 -16 17 -16 26 16 188 l34 170 57 0 c60 0 70 7 70 51 0
16 -7 19 -55 19 l-56 0 7 50 7 50 -29 -1 c-16 -1 -37 -3 -47 -6z"/>
<path d="M10531 2132 c-5 -10 -11 -36 -13 -58 l-3 -39 53 -3 c58 -3 61 1 76
81 l7 37 -55 0 c-43 0 -57 -4 -65 -18z"/>
</g>
</svg>
